<svg xmlns="http://www.w3.org/2000/svg" viewBox="0 0 1081 129.26"><defs><style>.cls-1{fill:#ede6e0;}.cls-2{fill:#ddcfc5;}.cls-3{fill:#8c5b39;}.cls-4{fill:#252525;}.cls-4,.cls-5{stroke:#231f20;stroke-miterlimit:10;}.cls-5{fill:none;}</style></defs><g id="Layer_2" data-name="Layer 2"><path class="cls-1" d="M0,86.87C18.17,85.53,45.94,83.65,79.76,82c209-10.12,273.06,7.44,511.34,13.4C795.65,100.53,923.65,92,1038.46,77c17.43-2.28,31.83-4.34,41.54-5.77V200H0Z" transform="translate(0.5 -71.24)"/><path class="cls-1" d="M954.51-88.09" transform="translate(0.5 -71.24)"/></g><g id="Layer_3" data-name="Layer 3"><path class="cls-2" d="M0,98c31.5,3.29,79.91,7.85,139,11.33C362.41,122.47,500.2,106.11,720,97.47c85.16-3.34,208.74-6.55,360-4.44V200H0Z" transform="translate(0.5 -71.24)"/></g><g id="Layer_4" data-name="Layer 4"><path class="cls-3" d="M0,123.77c36.67-1.36,103.42-3.5,187-4.13,306.86-2.32,430.43,18.85,675.26,4.64,46.65-2.71,122.81-8.16,217.76-20.18V200H0Z" transform="translate(0.5 -71.24)"/></g><g id="Layer_5" data-name="Layer 5"><path class="cls-4" d="M0,144.89l1080-.5V200H0Z" transform="translate(0.5 -71.24)"/><path class="cls-5" d="M404.51,290.77" transform="translate(0.5 -71.24)"/></g></svg>